<svg width="186" height="32" viewBox="0 0 186 32" fill="none" xmlns="http://www.w3.org/2000/svg">
<path d="M183.382 9.57232C183.382 8.87096 182.885 8.40338 182.067 8.40338L180.459 8.4326L180.489 11.9979H181.365V10.7705H181.891L182.651 11.9979H183.674L182.768 10.6244C182.956 10.5204 183.111 10.3678 183.219 10.1826C183.327 9.99748 183.383 9.78665 183.382 9.57232ZM181.891 10.0399H181.336V9.13397H181.979C182.095 9.12128 182.211 9.15368 182.304 9.22443C182.396 9.29517 182.458 9.39883 182.476 9.51388V9.54311C182.474 9.61534 182.456 9.68631 182.425 9.75143C182.394 9.81655 182.349 9.87437 182.294 9.92118C182.239 9.96799 182.175 10.0027 182.105 10.0232C182.036 10.0436 181.963 10.0493 181.891 10.0399ZM52.2556 26.0544C50.7651 26.0544 49.7423 24.8855 49.7423 23.1613V15.3001H55.8793V9.74767H49.7569L49.6985 3.37693H42.9186L42.9771 24.5933C42.9771 28.8891 45.841 31.8115 50.0492 31.8115C52.2702 31.8115 54.3743 31.49 56.04 30.7302V25.3238C54.8571 25.8728 53.5578 26.1236 52.2556 26.0544ZM68.4454 9.39699C62.1331 9.39699 57.282 14.3065 57.282 20.8234C57.282 27.2818 62.1331 31.7822 68.8253 31.7822C72.5952 31.7822 76.1312 30.438 78.2938 27.6617L73.092 25.2946C72.0399 26.259 70.4326 26.6389 69.0007 26.6389C66.6628 26.6389 64.3249 25.4407 64.0034 22.986H79.5212C79.7544 22.1088 79.8723 21.205 79.8718 20.2974C79.8718 13.6052 74.9915 9.39699 68.46 9.39699H68.4454ZM64.0034 18.6901C64.208 15.7677 66.3121 14.4234 68.6208 14.4234C71.2217 14.4234 73.1796 15.8846 73.1796 18.3978V18.6901H64.0034ZM36.4748 26.0544C34.9844 26.0544 33.9616 24.8855 33.9616 23.1613V15.3001H40.0985V9.74767H33.9762L33.9178 3.37693H27.1379L27.1963 24.5933C27.1963 28.8891 30.0602 31.8115 34.2684 31.8115C36.4894 31.8115 38.5935 31.49 40.2593 30.7302V25.3238C39.0772 25.8754 37.7772 26.1264 36.4748 26.0544ZM12.6576 9.39699C6.84211 9.39699 0.734375 13.2253 0.734375 20.9403C0.734375 27.3695 5.05947 31.8699 10.5243 31.8699C13.6512 31.8699 16.0183 30.6133 17.5672 28.3923L17.7717 31.49H24.3324V21.2033C24.3324 13.3714 18.5608 9.39699 12.6576 9.39699ZM12.6576 25.9375C9.70602 25.9375 7.57269 23.7458 7.57269 20.6481C7.57269 17.5504 9.67679 15.3586 12.6576 15.3586C15.4046 15.3586 17.6841 17.7549 17.6841 20.6481C17.6841 23.5412 15.4046 25.9375 12.6576 25.9375ZM181.745 6.79608C179.612 6.8253 178.238 8.19882 178.268 10.2445C178.297 12.2901 179.7 13.6344 181.833 13.6052C183.908 13.576 185.311 12.2025 185.281 10.1276C185.252 8.0527 183.849 6.76686 181.745 6.79608ZM181.833 13.0207C180.167 13.0499 179.027 11.9394 179.027 10.2445C179.027 8.5495 180.109 7.40978 181.774 7.38055C183.44 7.35133 184.551 8.46183 184.58 10.186C184.58 11.8518 183.469 12.9915 181.848 13.0207H181.833ZM148.606 9.77689L143.871 23.512L139.079 9.77689H131.714L140.54 31.4608H147.145L155.97 9.77689H148.606ZM166.169 9.39699C159.857 9.39699 155.006 14.3065 155.006 20.8234C155.006 27.2818 159.857 31.7822 166.549 31.7822C170.319 31.7822 173.855 30.438 176.017 27.6617L170.816 25.2946C169.764 26.259 168.156 26.6389 166.724 26.6389C164.386 26.6389 162.049 25.4407 161.727 22.986H177.245C177.478 22.1088 177.596 21.205 177.596 20.2974C177.596 13.6052 172.715 9.39699 166.169 9.39699ZM170.903 18.6901H161.727C161.932 15.7677 164.036 14.4234 166.344 14.4234C168.945 14.4234 170.903 15.8846 170.903 18.3978V18.6901ZM126.483 0.25C124.087 0.25 122.275 1.8573 122.275 4.10752C122.275 6.35773 124.087 8.02348 126.483 8.02348C128.88 8.02348 130.692 6.38696 130.692 4.10752C130.692 1.82808 128.909 0.25 126.483 0.25ZM95.711 9.36776C94.3408 9.34562 92.9882 9.67849 91.7848 10.334C90.5814 10.9895 89.5681 11.9452 88.8435 13.1084L88.6097 9.77689H82.0636V31.4608H88.8435V20.0928C88.9896 17.375 91.1814 15.3001 93.5777 15.3001C96.2663 15.3001 97.4937 17.3166 97.4937 19.859V31.4316H104.244V18.807C104.244 13.3129 100.898 9.36776 95.711 9.36776ZM116.401 26.0544C114.911 26.0544 113.888 24.8855 113.888 23.1613V15.3001H120.025V9.74767H113.888L113.83 3.37693H107.05L107.108 24.5933C107.108 28.8891 109.972 31.8115 114.18 31.8115C116.401 31.8115 118.505 31.49 120.171 30.7302V25.3238C118.994 25.8731 117.699 26.124 116.401 26.0544ZM123.064 9.77689V31.4608H129.903V9.77689C128.889 10.4487 127.7 10.807 126.483 10.807C125.267 10.807 124.078 10.4487 123.064 9.77689Z" fill="#1A1E22"/>
</svg>
