<svg width="1500" height="1500" viewBox="0 0 1500 1500" fill="none" xmlns="http://www.w3.org/2000/svg">
<path fill-rule="evenodd" clip-rule="evenodd" d="M750 1500C1164.21 1500 1500 1164.21 1500 750C1500 335.786 1164.21 0 750 0C335.786 0 0 335.786 0 750C0 1164.21 335.786 1500 750 1500ZM746 1210.94C720.595 1210.94 700 1231.53 700 1256.94V1264.94C700 1290.34 720.595 1310.94 746 1310.94H754C779.405 1310.94 800 1290.34 800 1264.94V1256.94C800 1231.53 779.405 1210.94 754 1210.94H746ZM678.125 1056.94C678.125 1031.53 698.72 1010.94 724.125 1010.94H775.875C801.28 1010.94 821.875 1031.53 821.875 1056.94V1064.94C821.875 1090.34 801.28 1110.94 775.875 1110.94H724.125C698.72 1110.94 678.125 1090.34 678.125 1064.94V1056.94ZM674.125 810.938C648.72 810.938 628.125 831.532 628.125 856.938V864.938C628.125 890.343 648.72 910.938 674.125 910.938H825.875C851.28 910.938 871.875 890.343 871.875 864.938V856.938C871.875 831.532 851.28 810.938 825.875 810.938H674.125ZM518.75 656.937C518.75 631.532 539.345 610.937 564.75 610.937H935.25C960.655 610.937 981.25 631.532 981.25 656.937V664.937C981.25 690.343 960.655 710.937 935.25 710.937H564.75C539.345 710.937 518.75 690.343 518.75 664.937V656.937ZM311.625 410.938C286.22 410.938 265.625 431.532 265.625 456.938V464.938C265.625 490.343 286.22 510.938 311.625 510.938H1188.38C1213.78 510.938 1234.38 490.343 1234.38 464.938V456.938C1234.38 431.532 1213.78 410.938 1188.38 410.938H311.625Z" fill="white"/>
</svg>
