<?xml version="1.0" encoding="UTF-8" standalone="no"?>
<!DOCTYPE svg PUBLIC "-//W3C//DTD SVG 1.1//EN" "http://www.w3.org/Graphics/SVG/1.1/DTD/svg11.dtd">
<!-- Created with Vectornator (http://vectornator.io/) -->
<svg height="100%" stroke-miterlimit="10" style="fill-rule:nonzero;clip-rule:evenodd;stroke-linecap:round;stroke-linejoin:round;" version="1.1" viewBox="0 0 1024 1024" width="100%" xml:space="preserve" xmlns="http://www.w3.org/2000/svg" xmlns:vectornator="http://vectornator.io" xmlns:xlink="http://www.w3.org/1999/xlink">
<defs>
<path d="M358.396 69.294C351.126 69.294 345.228 75.1924 345.228 82.4622L345.228 99.9687C345.228 107.239 351.126 113.137 358.396 113.137L423.661 113.137C430.931 113.137 436.83 119.035 436.83 126.305L436.83 291.312C291.854 325.334 183.83 455.144 183.83 610.498C183.83 786.23 321.891 929.703 495.492 938.284C500.958 938.561 506.465 938.706 512 938.706C512.554 938.706 513.098 938.67 513.651 938.668C518.627 938.642 523.588 938.533 528.508 938.284C533.973 938.012 539.395 937.591 544.786 937.055C710.628 920.581 840.17 780.672 840.17 610.498C840.17 455.144 732.107 325.334 587.132 291.312L587.132 126.305C587.132 119.035 592.992 113.137 600.262 113.137L665.604 113.137C672.874 113.137 678.772 107.239 678.772 99.9687L678.772 82.4622C678.772 75.1924 672.874 69.294 665.604 69.294L358.396 69.294Z" id="Fill"/>
<filter color-interpolation-filters="sRGB" filterUnits="userSpaceOnUse" height="1023.41" id="Filter" width="810.34" x="106.83" y="-1.70603">
<feDropShadow dx="3.67394e-16" dy="6" flood-color="#414141" flood-opacity="0.6" in="SourceGraphic" result="Shadow" stdDeviation="8"/>
</filter>
</defs>
<clipPath id="ArtboardFrame">
<rect height="1024" width="1024" x="0" y="0"/>
</clipPath>
<g clip-path="url(#ArtboardFrame)" id="Layer-4" vectornator:layerName="Layer 4">
<g filter="url(#Filter)" vectornator:layerName="Curve 2" vectornator:shadowAngle="1.5708" vectornator:shadowColor="#414141" vectornator:shadowOffset="6" vectornator:shadowOpacity="0.6" vectornator:shadowRadius="16">
<use fill="#ffffff" fill-rule="nonzero" stroke="none" xlink:href="#Fill"/>
<mask height="983.412" id="StrokeMask" maskUnits="userSpaceOnUse" width="770.34" x="126.83" y="12.294">
<rect fill="#ffffff" height="983.412" stroke="none" width="770.34" x="126.83" y="12.294"/>
<use fill="#000000" fill-rule="evenodd" stroke="none" xlink:href="#Fill"/>
</mask>
<use fill="none" mask="url(#StrokeMask)" stroke="#ffffff" stroke-linecap="butt" stroke-linejoin="round" stroke-width="114" xlink:href="#Fill"/>
</g>
<path d="M358.381 69.3043C351.111 69.3043 345.22 75.1952 345.22 82.465L345.22 99.9645C345.22 107.234 351.111 113.125 358.381 113.125L423.664 113.125C430.934 113.125 436.825 119.016 436.825 126.286L436.825 291.302C291.849 325.324 183.82 455.133 183.82 610.487C183.82 791.741 330.716 938.696 511.971 938.696C693.226 938.696 840.18 791.741 840.18 610.487C840.18 455.133 732.093 325.324 587.118 291.302L587.118 126.286C587.118 119.016 593.009 113.125 600.278 113.125L665.619 113.125C672.889 113.125 678.78 107.234 678.78 99.9645L678.78 82.465C678.78 75.1952 672.889 69.3043 665.619 69.3043L358.381 69.3043ZM771.137 510.841C773.952 517.84 776.5 524.989 778.773 532.245C787.106 558.846 791.673 587.093 791.673 616.445C791.674 772.964 664.816 899.879 508.298 899.879C385.999 899.879 282.108 822.243 242.392 713.69C299.616 641.115 357.925 603.1 429.478 599.698C511.94 595.776 594.459 655.922 661.281 635.651C745.979 609.957 771.137 510.841 771.137 510.841Z" fill="#905bc1" fill-rule="nonzero" opacity="1" stroke="none" vectornator:layerName="Curve 1"/>
</g>
</svg>
