<svg width="40" height="40" viewBox="0 0 40 40" fill="none" xmlns="http://www.w3.org/2000/svg">
<g clip-path="url(#clip0_219_1775)">
<path d="M39.054 39.054H0V0H39.054V39.054ZM3.60889 35.4475H35.4475V3.60654H3.60654V35.4451L3.60889 35.4475Z" fill="#FF8862"/>
<path fill-rule="evenodd" clip-rule="evenodd" d="M25.9061 15.2485C25.9061 14.0315 24.9169 13.0423 23.6998 13.0423C23.6883 13.0423 23.6768 13.0424 23.6653 13.0426V12.9318H18.3655C19.2611 10.8742 21.3124 9.43576 23.6998 9.43576C26.9117 9.43576 29.515 12.0391 29.515 15.2509C29.515 18.4627 26.9117 21.066 23.6998 21.066C21.3191 21.066 19.2727 19.6356 18.3731 17.5873H23.6653V17.4545C23.6768 17.4546 23.6883 17.4547 23.6998 17.4547C24.9169 17.4547 25.9061 16.4656 25.9061 15.2485Z" fill="#FF8862"/>
<path d="M23.8577 9.43956L9.69946 9.4791L9.70953 13.0856L23.8678 13.0461L23.8577 9.43956Z" fill="#FF8862"/>
<path d="M16.7029 21.0989L16.6982 17.49L23.7281 17.4524L23.7328 21.0589L16.7029 21.0989Z" fill="#FF8862"/>
<path d="M13.3054 18.1432L20.8051 25.6429H13.3054V18.1432ZM9.69885 9.43341V29.2494H29.5149L9.69885 9.43341Z" fill="#FF8862"/>
</g>
<defs>
<clipPath id="clip0_219_1775">
<rect width="39.054" height="39.054" rx="0.258636" fill="white"/>
</clipPath>
</defs>
</svg>
