<svg width="402" height="71" viewBox="0 0 402 71" fill="none" xmlns="http://www.w3.org/2000/svg">
<path d="M108.884 53.6216L112.95 43.2293H129.707L133.773 53.6216H138.883L124.268 15.1317H118.609L103.939 53.6216H108.884ZM121.301 20.3553L128.279 38.8854H114.378L121.301 20.3553Z" fill="#00014E"/>
<path d="M142.479 44.384C142.589 50.5424 147.589 53.9515 154.842 53.9515C161.05 53.9515 166.05 50.7073 166.05 45.4837C166.05 39.2703 160.94 38.0606 154.567 37.2908C150.501 36.796 147.534 36.4111 147.534 33.3319C147.534 30.7476 150.171 29.098 154.072 29.098C157.918 29.098 160.556 31.2424 160.885 34.1017H165.5C165.061 28.2732 160.446 25.304 154.072 25.249C147.754 25.194 143.084 28.5481 143.084 33.6618C143.084 39.4903 148.084 40.7549 154.347 41.5247C158.523 42.0196 161.6 42.2945 161.6 45.8136C161.6 48.3979 158.797 50.1025 154.842 50.1025C150.171 50.1025 147.259 47.6831 147.095 44.384H142.479Z" fill="#00014E"/>
<path d="M171.009 44.384C171.119 50.5424 176.119 53.9515 183.371 53.9515C189.58 53.9515 194.58 50.7073 194.58 45.4837C194.58 39.2703 189.47 38.0606 183.096 37.2908C179.031 36.796 176.064 36.4111 176.064 33.3319C176.064 30.7476 178.701 29.098 182.602 29.098C186.448 29.098 189.085 31.2424 189.415 34.1017H194.03C193.591 28.2732 188.975 25.304 182.602 25.249C176.283 25.194 171.613 28.5481 171.613 33.6618C171.613 39.4903 176.613 40.7549 182.877 41.5247C187.052 42.0196 190.129 42.2945 190.129 45.8136C190.129 48.3979 187.327 50.1025 183.371 50.1025C178.701 50.1025 175.789 47.6831 175.624 44.384H171.009Z" fill="#00014E"/>
<path d="M214.141 53.9515C220.624 53.9515 225.239 49.8275 226.338 44.219H221.778C220.844 47.8481 217.767 49.9375 213.811 49.9375C208.481 49.9375 205.13 46.1985 204.965 40.8649V40.48H226.722C226.777 39.8202 226.832 39.1603 226.832 38.5555C226.613 30.2527 221.448 25.249 213.536 25.249C205.624 25.249 200.24 31.0775 200.24 39.6002C200.24 48.178 205.734 53.9515 214.141 53.9515ZM205.24 36.741C205.679 32.1772 209.47 29.208 213.591 29.208C218.261 29.208 221.558 31.9023 221.997 36.741H205.24Z" fill="#00014E"/>
<path d="M264.884 25.249C259.884 25.249 256.863 27.5584 255.159 30.5826C253.566 27.0085 250.214 25.249 246.314 25.249C241.973 25.249 239.61 27.3934 238.127 29.4279L237.523 25.5789H233.622V53.6216H238.127V38.8304C238.127 33.2219 240.929 29.3729 245.544 29.3729C249.83 29.3729 252.302 32.2322 252.302 37.7307V53.6216H256.808V38.6105C256.808 32.892 259.665 29.3729 264.335 29.3729C268.565 29.3729 270.983 32.2322 270.983 37.7307V53.6216H275.488V37.4558C275.488 28.6031 270.708 25.249 264.884 25.249Z" fill="#00014E"/>
<path d="M297.036 25.249C292.311 25.249 289.289 27.5034 287.421 30.0877V15.1317H282.916V53.6216H286.817L287.421 49.3327C289.124 52.027 292.311 53.9515 297.036 53.9515C304.783 53.9515 310.497 48.178 310.497 39.6002C310.497 30.4726 304.783 25.249 297.036 25.249ZM296.597 49.9375C291.102 49.9375 287.366 45.6486 287.366 39.4903C287.366 33.4968 291.102 29.2629 296.597 29.2629C302.146 29.2629 305.882 33.4968 305.882 39.6002C305.882 45.7036 302.146 49.9375 296.597 49.9375Z" fill="#00014E"/>
<path d="M317.294 53.6216H321.799V15.1317H317.294V53.6216Z" fill="#00014E"/>
<path d="M337.751 53.7865L336.378 57.1956C335.334 59.8349 334.894 60.4947 332.312 60.4947H328.301V64.6187H333.685C337.641 64.6187 338.685 62.8591 340.443 58.3503L353.355 25.5789H348.575L340.224 47.958L331.598 25.5789H326.818L337.751 53.7865Z" fill="#00014E"/>
<path d="M359.763 53.6216L363.829 43.2293H380.587L384.652 53.6216H389.762L375.147 15.1317H369.488L354.818 53.6216H359.763ZM372.18 20.3553L379.158 38.8854H365.257L372.18 20.3553Z" fill="#00014E"/>
<path d="M395.762 53.6216H400.542V15.1317H395.762V53.6216Z" fill="#00014E"/>
<path d="M108.884 53.6216L112.95 43.2293H129.707L133.773 53.6216H138.883L124.268 15.1317H118.609L103.939 53.6216H108.884ZM121.301 20.3553L128.279 38.8854H114.378L121.301 20.3553Z" stroke="#00014E"/>
<path d="M142.479 44.384C142.589 50.5424 147.589 53.9515 154.842 53.9515C161.05 53.9515 166.05 50.7073 166.05 45.4837C166.05 39.2703 160.94 38.0606 154.567 37.2908C150.501 36.796 147.534 36.4111 147.534 33.3319C147.534 30.7476 150.171 29.098 154.072 29.098C157.918 29.098 160.556 31.2424 160.885 34.1017H165.5C165.061 28.2732 160.446 25.304 154.072 25.249C147.754 25.194 143.084 28.5481 143.084 33.6618C143.084 39.4903 148.084 40.7549 154.347 41.5247C158.523 42.0196 161.6 42.2945 161.6 45.8136C161.6 48.3979 158.797 50.1025 154.842 50.1025C150.171 50.1025 147.259 47.6831 147.095 44.384H142.479Z" stroke="#00014E"/>
<path d="M171.009 44.384C171.119 50.5424 176.119 53.9515 183.371 53.9515C189.58 53.9515 194.58 50.7073 194.58 45.4837C194.58 39.2703 189.47 38.0606 183.096 37.2908C179.031 36.796 176.064 36.4111 176.064 33.3319C176.064 30.7476 178.701 29.098 182.602 29.098C186.448 29.098 189.085 31.2424 189.415 34.1017H194.03C193.591 28.2732 188.975 25.304 182.602 25.249C176.283 25.194 171.613 28.5481 171.613 33.6618C171.613 39.4903 176.613 40.7549 182.877 41.5247C187.052 42.0196 190.129 42.2945 190.129 45.8136C190.129 48.3979 187.327 50.1025 183.371 50.1025C178.701 50.1025 175.789 47.6831 175.624 44.384H171.009Z" stroke="#00014E"/>
<path d="M214.141 53.9515C220.624 53.9515 225.239 49.8275 226.338 44.219H221.778C220.844 47.8481 217.767 49.9375 213.811 49.9375C208.481 49.9375 205.13 46.1985 204.965 40.8649V40.48H226.722C226.777 39.8202 226.832 39.1603 226.832 38.5555C226.613 30.2527 221.448 25.249 213.536 25.249C205.624 25.249 200.24 31.0775 200.24 39.6002C200.24 48.178 205.734 53.9515 214.141 53.9515ZM205.24 36.741C205.679 32.1772 209.47 29.208 213.591 29.208C218.261 29.208 221.558 31.9023 221.997 36.741H205.24Z" stroke="#00014E"/>
<path d="M264.884 25.249C259.884 25.249 256.863 27.5584 255.159 30.5826C253.566 27.0085 250.214 25.249 246.314 25.249C241.973 25.249 239.61 27.3934 238.127 29.4279L237.523 25.5789H233.622V53.6216H238.127V38.8304C238.127 33.2219 240.929 29.3729 245.544 29.3729C249.83 29.3729 252.302 32.2322 252.302 37.7307V53.6216H256.808V38.6105C256.808 32.892 259.665 29.3729 264.335 29.3729C268.565 29.3729 270.983 32.2322 270.983 37.7307V53.6216H275.488V37.4558C275.488 28.6031 270.708 25.249 264.884 25.249Z" stroke="#00014E"/>
<path d="M297.036 25.249C292.311 25.249 289.289 27.5034 287.421 30.0877V15.1317H282.916V53.6216H286.817L287.421 49.3327C289.124 52.027 292.311 53.9515 297.036 53.9515C304.783 53.9515 310.497 48.178 310.497 39.6002C310.497 30.4726 304.783 25.249 297.036 25.249ZM296.597 49.9375C291.102 49.9375 287.366 45.6486 287.366 39.4903C287.366 33.4968 291.102 29.2629 296.597 29.2629C302.146 29.2629 305.882 33.4968 305.882 39.6002C305.882 45.7036 302.146 49.9375 296.597 49.9375Z" stroke="#00014E"/>
<path d="M317.294 53.6216H321.799V15.1317H317.294V53.6216Z" stroke="#00014E"/>
<path d="M337.751 53.7865L336.378 57.1956C335.334 59.8349 334.894 60.4947 332.312 60.4947H328.301V64.6187H333.685C337.641 64.6187 338.685 62.8591 340.443 58.3503L353.355 25.5789H348.575L340.224 47.958L331.598 25.5789H326.818L337.751 53.7865Z" stroke="#00014E"/>
<path d="M359.763 53.6216L363.829 43.2293H380.587L384.652 53.6216H389.762L375.147 15.1317H369.488L354.818 53.6216H359.763ZM372.18 20.3553L379.158 38.8854H365.257L372.18 20.3553Z" stroke="#00014E"/>
<path d="M395.762 53.6216H400.542V15.1317H395.762V53.6216Z" stroke="#00014E"/>
<path d="M36.1992 0.674026C31.0677 0.674026 26.4633 3.8286 24.6067 8.61618L0.541992 70.674H18.8229L37.7648 21.827H37.7728C38.2481 20.6365 39.4111 19.7953 40.7704 19.7953C42.1297 19.7953 43.2926 20.6365 43.768 21.827H46.2918V11.9187H41.607L45.9675 0.674026H36.1992Z" fill="#213ED7"/>
<path d="M24.6079 8.61619C26.389 4.02323 30.6991 0.933202 35.5774 0.689563L35.5713 0.674026H45.6523C50.7838 0.674026 55.3882 3.8286 57.2448 8.61618L81.3095 70.674H62.7159L39.38 10.4958C38.044 7.5466 35.0765 5.49517 31.6302 5.49517C28.1755 5.49517 25.2019 7.55668 23.8706 10.5176L24.6079 8.61619Z" fill="#566DE8"/>
</svg>
