<svg width="78" height="17" viewBox="0 0 78 17" fill="none" xmlns="http://www.w3.org/2000/svg">
<path d="M28.1097 15.4328C27.1505 15.4328 26.2835 15.221 25.5087 14.7977C24.7462 14.3744 24.1376 13.7981 23.6825 13.069C23.2398 12.3282 23.0123 11.4991 23 10.5818V2.25582C23 2.04415 23.0615 1.8795 23.1844 1.76191C23.3197 1.63255 23.4981 1.56787 23.7194 1.56787C23.9285 1.56787 24.0945 1.63255 24.2174 1.76191C24.3527 1.8795 24.4204 2.04415 24.4204 2.25582V7.44192C24.8262 6.8892 25.3612 6.44821 26.0252 6.11894C26.7016 5.7779 27.4518 5.60738 28.2757 5.60738C29.2226 5.60738 30.0712 5.82494 30.8213 6.26006C31.5715 6.68341 32.1618 7.26553 32.5922 8.00639C33.0349 8.7473 33.2563 9.58225 33.2563 10.5112C33.2563 11.452 33.0287 12.2929 32.5738 13.0338C32.131 13.7746 31.5223 14.3626 30.7475 14.7977C29.9728 15.221 29.0935 15.4328 28.1097 15.4328ZM28.1097 14.198C28.8229 14.198 29.4624 14.0392 30.0281 13.7217C30.5938 13.3924 31.0365 12.9514 31.3562 12.3987C31.6883 11.846 31.8543 11.2168 31.8543 10.5112C31.8543 9.81745 31.6883 9.19414 31.3562 8.64145C31.0365 8.07693 30.5938 7.63597 30.0281 7.31844C29.4624 7.00092 28.8229 6.84216 28.1097 6.84216C27.4087 6.84216 26.7754 7.00092 26.2096 7.31844C25.644 7.63597 25.2013 8.07693 24.8815 8.64145C24.5618 9.19414 24.402 9.81745 24.402 10.5112C24.402 11.2168 24.5618 11.846 24.8815 12.3987C25.2013 12.9514 25.644 13.3924 26.2096 13.7217C26.7754 14.0392 27.4087 14.198 28.1097 14.198Z" fill="#081D31"/>
<path d="M40.6169 15.4326C39.6209 15.4326 38.7354 15.2267 37.9607 14.8151C37.1982 14.3918 36.5957 13.8097 36.1529 13.0688C35.7225 12.328 35.5073 11.4812 35.5073 10.5286C35.5073 9.56435 35.7102 8.71766 36.116 7.98857C36.5341 7.24768 37.106 6.66557 37.8315 6.24221C38.5571 5.81886 39.3933 5.60718 40.3402 5.60718C41.2749 5.60718 42.0865 5.81298 42.7752 6.22457C43.4762 6.62441 44.0173 7.183 44.3985 7.90033C44.7797 8.61767 44.9703 9.43501 44.9703 10.3522C44.9703 10.5405 44.9089 10.6933 44.7859 10.8109C44.6629 10.9168 44.503 10.9697 44.3062 10.9697H36.4665V9.84074H44.4538L43.6606 10.3876C43.6729 9.70552 43.5438 9.09395 43.2732 8.553C43.0027 8.01205 42.6153 7.58871 42.1112 7.28296C41.6192 6.9772 41.0289 6.82433 40.3402 6.82433C39.6393 6.82433 39.0244 6.98308 38.4956 7.3006C37.9668 7.61815 37.5548 8.05911 37.2597 8.62355C36.9769 9.17632 36.8355 9.8113 36.8355 10.5286C36.8355 11.246 36.9953 11.8811 37.315 12.4337C37.6471 12.9865 38.0959 13.4216 38.6616 13.7391C39.2274 14.0567 39.8791 14.2154 40.6169 14.2154C41.0597 14.2154 41.5024 14.1448 41.9451 14.0037C42.4001 13.8508 42.7629 13.6627 43.0335 13.4392C43.1688 13.3334 43.3225 13.2805 43.4946 13.2805C43.6668 13.2687 43.8144 13.3099 43.9373 13.404C44.0972 13.5451 44.1771 13.698 44.1771 13.8626C44.1894 14.0272 44.1218 14.1684 43.9742 14.286C43.5684 14.6152 43.0519 14.8916 42.4247 15.115C41.7975 15.3267 41.195 15.4326 40.6169 15.4326Z" fill="#081D31"/>
<path d="M56.0246 15.3444C55.8155 15.3444 55.6433 15.2797 55.5081 15.1504C55.3728 15.021 55.3051 14.8622 55.3051 14.6741V10.0877C55.3051 9.35865 55.1575 8.75891 54.8624 8.2885C54.5796 7.8181 54.1861 7.4653 53.6818 7.2301C53.1899 6.9949 52.6304 6.8773 52.0032 6.8773C51.4006 6.8773 50.8533 6.98902 50.3615 7.21246C49.8819 7.4359 49.5006 7.74168 49.2178 8.12972C48.935 8.51783 48.7935 8.95879 48.7935 9.45268H47.779C47.8035 8.71185 48.0126 8.0533 48.4062 7.47706C48.7997 6.88906 49.3223 6.43043 49.9741 6.10115C50.6259 5.76012 51.3514 5.5896 52.1508 5.5896C53.0239 5.5896 53.8048 5.766 54.4935 6.11879C55.1821 6.45983 55.7232 6.9655 56.1167 7.63583C56.5225 8.30612 56.7255 9.12345 56.7255 10.0877V14.6741C56.7255 14.8622 56.6578 15.021 56.5226 15.1504C56.3873 15.2797 56.2213 15.3444 56.0246 15.3444ZM48.0925 15.3444C47.8712 15.3444 47.6928 15.2856 47.5576 15.168C47.4346 15.0386 47.3731 14.874 47.3731 14.6741V6.3834C47.3731 6.17171 47.4346 6.00707 47.5576 5.88948C47.6928 5.76012 47.8712 5.69544 48.0925 5.69544C48.3016 5.69544 48.4676 5.76012 48.5906 5.88948C48.7259 6.00707 48.7935 6.17171 48.7935 6.3834V14.6741C48.7935 14.874 48.7259 15.0386 48.5906 15.168C48.4676 15.2856 48.3016 15.3444 48.0925 15.3444Z" fill="#081D31"/>
<path d="M63.8044 15.3445C63.1526 15.3445 62.5685 15.1975 62.052 14.9035C61.5478 14.6095 61.1481 14.2097 60.853 13.704C60.5578 13.1866 60.4103 12.5986 60.4103 11.94V3.31417C60.4103 3.11426 60.4718 2.94961 60.5947 2.82025C60.73 2.6909 60.9022 2.62622 61.1112 2.62622C61.3203 2.62622 61.4924 2.6909 61.6277 2.82025C61.763 2.94961 61.8307 3.11426 61.8307 3.31417V11.94C61.8307 12.5398 62.0151 13.0337 62.384 13.4218C62.753 13.7981 63.2264 13.9863 63.8044 13.9863H64.3025C64.4992 13.9863 64.6591 14.051 64.7821 14.1803C64.905 14.3096 64.9666 14.4743 64.9666 14.6742C64.9666 14.8741 64.8928 15.0387 64.7452 15.1681C64.5976 15.2857 64.4132 15.3445 64.1918 15.3445H63.8044ZM59.2112 7.23021C59.0268 7.23021 58.8731 7.17729 58.7501 7.07145C58.6271 6.95384 58.5656 6.81273 58.5656 6.64809C58.5656 6.47169 58.6271 6.33058 58.7501 6.22474C58.8731 6.10714 59.0268 6.04834 59.2112 6.04834H63.9151C64.0995 6.04834 64.2533 6.10714 64.3762 6.22474C64.4992 6.33058 64.5608 6.47169 64.5608 6.64809C64.5608 6.81273 64.4992 6.95384 64.3762 7.07145C64.2533 7.17729 64.0995 7.23021 63.9151 7.23021H59.2112Z" fill="#081D31"/>
<path d="M71.8719 15.4326C70.888 15.4326 70.0088 15.2208 69.2341 14.7975C68.4593 14.3742 67.8505 13.792 67.4078 13.0512C66.9651 12.3103 66.7438 11.4694 66.7438 10.5286C66.7438 9.57609 66.9651 8.7294 67.4078 7.98857C67.8505 7.24768 68.4593 6.66557 69.2341 6.24221C70.0088 5.81886 70.888 5.60718 71.8719 5.60718C72.8557 5.60718 73.7288 5.81886 74.4913 6.24221C75.266 6.66557 75.8748 7.24768 76.3175 7.98857C76.7602 8.7294 76.9877 9.57609 77 10.5286C77 11.4694 76.7725 12.3103 76.3175 13.0512C75.8748 13.792 75.266 14.3742 74.4913 14.7975C73.7288 15.2208 72.8557 15.4326 71.8719 15.4326ZM71.8719 14.1978C72.5851 14.1978 73.2246 14.039 73.7903 13.7215C74.356 13.404 74.7987 12.9688 75.1184 12.4161C75.4382 11.8634 75.5981 11.2342 75.5981 10.5286C75.5981 9.82312 75.4382 9.19393 75.1184 8.64124C74.7987 8.07673 74.356 7.63576 73.7903 7.31823C73.2246 7.00072 72.5851 6.84196 71.8719 6.84196C71.1586 6.84196 70.5191 7.00072 69.9534 7.31823C69.3878 7.63576 68.9389 8.07673 68.6069 8.64124C68.2871 9.19393 68.1272 9.82312 68.1272 10.5286C68.1272 11.2342 68.2871 11.8634 68.6069 12.4161C68.9389 12.9688 69.3878 13.404 69.9534 13.7215C70.5191 14.039 71.1586 14.1978 71.8719 14.1978Z" fill="#081D31"/>
<path d="M28.1097 15.4328C27.1505 15.4328 26.2835 15.221 25.5087 14.7977C24.7462 14.3744 24.1376 13.7981 23.6825 13.069C23.2398 12.3282 23.0123 11.4991 23 10.5818V2.25582C23 2.04415 23.0615 1.8795 23.1844 1.76191C23.3197 1.63255 23.4981 1.56787 23.7194 1.56787C23.9285 1.56787 24.0945 1.63255 24.2174 1.76191C24.3527 1.8795 24.4204 2.04415 24.4204 2.25582V7.44192C24.8262 6.8892 25.3612 6.44821 26.0252 6.11894C26.7016 5.7779 27.4518 5.60738 28.2757 5.60738C29.2226 5.60738 30.0712 5.82494 30.8213 6.26006C31.5715 6.68341 32.1618 7.26553 32.5922 8.00639C33.0349 8.7473 33.2563 9.58225 33.2563 10.5112C33.2563 11.452 33.0287 12.2929 32.5738 13.0338C32.131 13.7746 31.5223 14.3626 30.7475 14.7977C29.9728 15.221 29.0935 15.4328 28.1097 15.4328ZM28.1097 14.198C28.8229 14.198 29.4624 14.0392 30.0281 13.7217C30.5938 13.3924 31.0365 12.9514 31.3562 12.3987C31.6883 11.846 31.8543 11.2168 31.8543 10.5112C31.8543 9.81745 31.6883 9.19414 31.3562 8.64145C31.0365 8.07693 30.5938 7.63597 30.0281 7.31844C29.4624 7.00092 28.8229 6.84216 28.1097 6.84216C27.4087 6.84216 26.7754 7.00092 26.2096 7.31844C25.644 7.63597 25.2013 8.07693 24.8815 8.64145C24.5618 9.19414 24.402 9.81745 24.402 10.5112C24.402 11.2168 24.5618 11.846 24.8815 12.3987C25.2013 12.9514 25.644 13.3924 26.2096 13.7217C26.7754 14.0392 27.4087 14.198 28.1097 14.198Z" stroke="#73A4FC" stroke-width="0.0804382"/>
<path d="M40.6169 15.4326C39.6209 15.4326 38.7354 15.2267 37.9607 14.8151C37.1982 14.3918 36.5957 13.8097 36.1529 13.0688C35.7225 12.328 35.5073 11.4812 35.5073 10.5286C35.5073 9.56435 35.7102 8.71766 36.116 7.98857C36.5341 7.24768 37.106 6.66557 37.8315 6.24221C38.5571 5.81886 39.3933 5.60718 40.3402 5.60718C41.2749 5.60718 42.0865 5.81298 42.7752 6.22457C43.4762 6.62441 44.0173 7.183 44.3985 7.90033C44.7797 8.61767 44.9703 9.43501 44.9703 10.3522C44.9703 10.5405 44.9089 10.6933 44.7859 10.8109C44.6629 10.9168 44.503 10.9697 44.3062 10.9697H36.4665V9.84074H44.4538L43.6606 10.3876C43.6729 9.70552 43.5438 9.09395 43.2732 8.553C43.0027 8.01205 42.6153 7.58871 42.1112 7.28296C41.6192 6.9772 41.0289 6.82433 40.3402 6.82433C39.6393 6.82433 39.0244 6.98308 38.4956 7.3006C37.9668 7.61815 37.5548 8.05911 37.2597 8.62355C36.9769 9.17632 36.8355 9.8113 36.8355 10.5286C36.8355 11.246 36.9953 11.8811 37.315 12.4337C37.6471 12.9865 38.0959 13.4216 38.6616 13.7391C39.2274 14.0567 39.8791 14.2154 40.6169 14.2154C41.0597 14.2154 41.5024 14.1448 41.9451 14.0037C42.4001 13.8508 42.7629 13.6627 43.0335 13.4392C43.1688 13.3334 43.3225 13.2805 43.4946 13.2805C43.6668 13.2687 43.8144 13.3099 43.9373 13.404C44.0972 13.5451 44.1771 13.698 44.1771 13.8626C44.1894 14.0272 44.1218 14.1684 43.9742 14.286C43.5684 14.6152 43.0519 14.8916 42.4247 15.115C41.7975 15.3267 41.195 15.4326 40.6169 15.4326Z" stroke="#73A4FC" stroke-width="0.0804382"/>
<path d="M56.0246 15.3444C55.8155 15.3444 55.6433 15.2797 55.5081 15.1504C55.3728 15.021 55.3051 14.8622 55.3051 14.6741V10.0877C55.3051 9.35865 55.1575 8.75891 54.8624 8.2885C54.5796 7.8181 54.1861 7.4653 53.6818 7.2301C53.1899 6.9949 52.6304 6.8773 52.0032 6.8773C51.4006 6.8773 50.8533 6.98902 50.3615 7.21246C49.8819 7.4359 49.5006 7.74168 49.2178 8.12972C48.935 8.51783 48.7935 8.95879 48.7935 9.45268H47.779C47.8035 8.71185 48.0126 8.0533 48.4062 7.47706C48.7997 6.88906 49.3223 6.43043 49.9741 6.10115C50.6259 5.76012 51.3514 5.5896 52.1508 5.5896C53.0239 5.5896 53.8048 5.766 54.4935 6.11879C55.1821 6.45983 55.7232 6.9655 56.1167 7.63583C56.5225 8.30612 56.7255 9.12345 56.7255 10.0877V14.6741C56.7255 14.8622 56.6578 15.021 56.5226 15.1504C56.3873 15.2797 56.2213 15.3444 56.0246 15.3444ZM48.0925 15.3444C47.8712 15.3444 47.6928 15.2856 47.5576 15.168C47.4346 15.0386 47.3731 14.874 47.3731 14.6741V6.3834C47.3731 6.17171 47.4346 6.00707 47.5576 5.88948C47.6928 5.76012 47.8712 5.69544 48.0925 5.69544C48.3016 5.69544 48.4676 5.76012 48.5906 5.88948C48.7259 6.00707 48.7935 6.17171 48.7935 6.3834V14.6741C48.7935 14.874 48.7259 15.0386 48.5906 15.168C48.4676 15.2856 48.3016 15.3444 48.0925 15.3444Z" stroke="#73A4FC" stroke-width="0.0804382"/>
<path d="M63.8044 15.3445C63.1526 15.3445 62.5685 15.1975 62.052 14.9035C61.5478 14.6095 61.1481 14.2097 60.853 13.704C60.5578 13.1866 60.4103 12.5986 60.4103 11.94V3.31417C60.4103 3.11426 60.4718 2.94961 60.5947 2.82025C60.73 2.6909 60.9022 2.62622 61.1112 2.62622C61.3203 2.62622 61.4924 2.6909 61.6277 2.82025C61.763 2.94961 61.8307 3.11426 61.8307 3.31417V11.94C61.8307 12.5398 62.0151 13.0337 62.384 13.4218C62.753 13.7981 63.2264 13.9863 63.8044 13.9863H64.3025C64.4992 13.9863 64.6591 14.051 64.7821 14.1803C64.905 14.3096 64.9666 14.4743 64.9666 14.6742C64.9666 14.8741 64.8928 15.0387 64.7452 15.1681C64.5976 15.2857 64.4132 15.3445 64.1918 15.3445H63.8044ZM59.2112 7.23021C59.0268 7.23021 58.8731 7.17729 58.7501 7.07145C58.6271 6.95384 58.5656 6.81273 58.5656 6.64809C58.5656 6.47169 58.6271 6.33058 58.7501 6.22474C58.8731 6.10714 59.0268 6.04834 59.2112 6.04834H63.9151C64.0995 6.04834 64.2533 6.10714 64.3762 6.22474C64.4992 6.33058 64.5608 6.47169 64.5608 6.64809C64.5608 6.81273 64.4992 6.95384 64.3762 7.07145C64.2533 7.17729 64.0995 7.23021 63.9151 7.23021H59.2112Z" stroke="#73A4FC" stroke-width="0.0804382"/>
<path d="M71.8719 15.4326C70.888 15.4326 70.0088 15.2208 69.2341 14.7975C68.4593 14.3742 67.8505 13.792 67.4078 13.0512C66.9651 12.3103 66.7438 11.4694 66.7438 10.5286C66.7438 9.57609 66.9651 8.7294 67.4078 7.98857C67.8505 7.24768 68.4593 6.66557 69.2341 6.24221C70.0088 5.81886 70.888 5.60718 71.8719 5.60718C72.8557 5.60718 73.7288 5.81886 74.4913 6.24221C75.266 6.66557 75.8748 7.24768 76.3175 7.98857C76.7602 8.7294 76.9877 9.57609 77 10.5286C77 11.4694 76.7725 12.3103 76.3175 13.0512C75.8748 13.792 75.266 14.3742 74.4913 14.7975C73.7288 15.2208 72.8557 15.4326 71.8719 15.4326ZM71.8719 14.1978C72.5851 14.1978 73.2246 14.039 73.7903 13.7215C74.356 13.404 74.7987 12.9688 75.1184 12.4161C75.4382 11.8634 75.5981 11.2342 75.5981 10.5286C75.5981 9.82312 75.4382 9.19393 75.1184 8.64124C74.7987 8.07673 74.356 7.63576 73.7903 7.31823C73.2246 7.00072 72.5851 6.84196 71.8719 6.84196C71.1586 6.84196 70.5191 7.00072 69.9534 7.31823C69.3878 7.63576 68.9389 8.07673 68.6069 8.64124C68.2871 9.19393 68.1272 9.82312 68.1272 10.5286C68.1272 11.2342 68.2871 11.8634 68.6069 12.4161C68.9389 12.9688 69.3878 13.404 69.9534 13.7215C70.5191 14.039 71.1586 14.1978 71.8719 14.1978Z" stroke="#73A4FC" stroke-width="0.0804382"/>
<path fill-rule="evenodd" clip-rule="evenodd" d="M8.5 1.5C6.83424 1.5 5.69025 1.50158 4.80908 1.58537C3.95022 1.66703 3.49713 1.81606 3.17125 2.01576C2.70031 2.30435 2.30435 2.70031 2.01576 3.17126C1.81606 3.49713 1.66703 3.95022 1.58537 4.80908C1.50158 5.69025 1.5 6.83424 1.5 8.5C1.5 10.1658 1.50158 11.3097 1.58537 12.1909C1.66703 13.0498 1.81606 13.5029 2.01576 13.8287C2.30435 14.2997 2.70031 14.6956 3.17125 14.9842C3.49713 15.1839 3.95022 15.333 4.80908 15.4146C5.69025 15.4984 6.83424 15.5 8.5 15.5C10.1658 15.5 11.3097 15.4984 12.1909 15.4146C13.0498 15.333 13.5029 15.1839 13.8287 14.9842C14.2997 14.6956 14.6956 14.2997 14.9842 13.8287C15.1839 13.5029 15.333 13.0498 15.4146 12.1909C15.4984 11.3097 15.5 10.1658 15.5 8.5C15.5 6.83424 15.4984 5.69025 15.4146 4.80908C15.333 3.95022 15.1839 3.49713 14.9842 3.17126C14.6956 2.70031 14.2997 2.30435 13.8287 2.01576C13.5029 1.81606 13.0498 1.66703 12.1909 1.58537C11.3097 1.50158 10.1658 1.5 8.5 1.5ZM0 8.5C0 11.7734 0 13.4101 0.736799 14.6125C1.14908 15.2853 1.71473 15.8509 2.38751 16.2632C3.58985 17 5.22657 17 8.5 17C11.7734 17 13.4101 17 14.6125 16.2632C15.2853 15.8509 15.8509 15.2853 16.2632 14.6125C17 13.4101 17 11.7734 17 8.5C17 5.22657 17 3.58985 16.2632 2.38751C15.8509 1.71473 15.2853 1.14908 14.6125 0.736799C13.4101 0 11.7734 0 8.5 0C5.22657 0 3.58985 0 2.38751 0.736799C1.71473 1.14908 1.14908 1.71473 0.736799 2.38751C0 3.58985 0 5.22657 0 8.5ZM3 5.5C3 6.88071 4.11929 8 5.5 8H6.90591C7.12615 8 7.23627 8 7.3275 7.97988C7.65343 7.90798 7.90798 7.65343 7.97988 7.3275C8 7.23627 8 7.12615 8 6.90591V5.5C8 4.11929 6.88071 3 5.5 3C4.11929 3 3 4.11929 3 5.5ZM3 11.5C3 10.1193 4.11929 9 5.5 9H6.90591C7.12615 9 7.23627 9 7.3275 9.02012C7.65343 9.09202 7.90798 9.34657 7.97988 9.6725C8 9.76373 8 9.87385 8 10.0941V11.5C8 12.8807 6.88071 14 5.5 14C4.11929 14 3 12.8807 3 11.5ZM11.5 8C12.8807 8 14 6.88071 14 5.5C14 4.11929 12.8807 3 11.5 3C10.1193 3 9 4.11929 9 5.5V6.90591C9 7.12615 9 7.23627 9.02012 7.3275C9.09202 7.65343 9.34657 7.90798 9.6725 7.97988C9.76373 8 9.87385 8 10.0941 8H11.5ZM14 11.5C14 10.1193 12.8807 9 11.5 9H10.0941C9.87385 9 9.76373 9 9.6725 9.02012C9.34657 9.09202 9.09202 9.34657 9.02012 9.6725C9 9.76373 9 9.87385 9 10.0941V11.5C9 12.8807 10.1193 14 11.5 14C12.8807 14 14 12.8807 14 11.5Z" fill="#376FFF"/>
</svg>
