<svg width="24" height="24" viewBox="0 0 24 24" fill="none"
  xmlns="http://www.w3.org/2000/svg">
  <path d="M10 20C10 20.5523 10.4477 21 11 21C11.5523 21 12 20.5523 12 20C12 18.66 12.4102 16.6278 13.6115 14.9593C14.7761 13.3418 16.7259 12 20 12C20.5523 12 21 11.5523 21 11C21 10.4477 20.5523 10 20 10C18.66 10 16.6278 9.58978 14.9593 8.38847C13.3418 7.22386 12 5.27408 12 2C12 1.44772 11.5523 1 11 1C10.4477 1 10 1.44772 10 2C10 3.33998 9.58978 5.3722 8.38847 7.0407C7.22386 8.6582 5.27408 10 2 10C1.44772 10 1 10.4477 1 11C1 11.5523 1.44772 12 2 12C3.33998 12 5.3722 12.4102 7.0407 13.6115C8.6582 14.7761 10 16.7259 10 20Z" fill="currentColor"/>
  <path d="M18 22C18 22.5523 18.4477 23 19 23C19.5523 23 20 22.5523 20 22C20 21.66 20.1102 21.1278 20.4115 20.7093C20.6761 20.3418 21.1259 20 22 20C22.5523 20 23 19.5523 23 19C23 18.4477 22.5523 18 22 18C21.66 18 21.1278 17.8898 20.7093 17.5885C20.3418 17.3239 20 16.8741 20 16C20 15.4477 19.5523 15 19 15C18.4477 15 18 15.4477 18 16C18 16.8741 17.6582 17.3239 17.2907 17.5885C16.8722 17.8898 16.34 18 16 18C15.4477 18 15 18.4477 15 19C15 19.5523 15.4477 20 16 20C16.8741 20 17.3239 20.3418 17.5885 20.7093C17.8898 21.1278 18 21.66 18 22Z" fill="currentColor"/>
</svg>
