<svg width="1440" height="2064" viewBox="0 0 1440 2064" fill="none" xmlns="http://www.w3.org/2000/svg">
<path d="M-1266.96 -1146.71C-1099.79 -775.948 -653.653 -2.57087 -206.509 124.846C352.421 284.117 913.155 -623.8 1682.58 708.884" stroke="#5B88B2" stroke-opacity="0.3"/>
<path d="M-1234.64 -1090.73C-1067.47 -719.965 -621.332 53.4118 -174.187 180.829C384.743 340.1 945.477 -567.817 1714.9 764.867" stroke="#5B88B2" stroke-opacity="0.3"/>
<path d="M-1190.45 -1014.18C-1023.27 -643.417 -577.137 129.959 -129.993 257.376C428.938 416.648 989.671 -491.27 1759.1 841.414" stroke="#5B88B2" stroke-opacity="0.3"/>
<path d="M-1129.1 -907.926C-961.926 -537.165 -515.792 236.212 -68.6476 363.629C490.283 522.9 1051.02 -385.017 1820.44 947.667" stroke="#5B88B2" stroke-opacity="0.3"/>
<path d="M-1059.18 -786.821C-892.006 -416.06 -445.872 357.317 1.27255 484.734C560.203 644.005 1120.94 -263.912 1890.36 1068.77" stroke="#5B88B2" stroke-opacity="0.3"/>
<path d="M-975.408 -641.723C-808.234 -270.962 -362.099 502.415 85.0448 629.832C643.975 789.103 1204.71 -118.814 1974.13 1213.87" stroke="#5B88B2" stroke-opacity="0.3"/>
<path d="M-875.805 -469.206C-708.631 -98.4443 -262.496 674.933 184.648 802.35C743.578 961.621 1304.31 53.7036 2073.74 1386.39" stroke="#5B88B2" stroke-opacity="0.3"/>
<path d="M-775.542 -295.545C-608.368 75.2159 -162.234 848.593 284.911 976.01C843.841 1135.28 1404.57 227.364 2174 1560.05" stroke="#5B88B2" stroke-opacity="0.3"/>
</svg>
